# xmcd CD database file
#
# Track frame offsets:
#	150
#	33518
#	65820
#	92308
#	114523
#	146030
#	214463
#	263238
#	297338
#	304878
#
# Disc length: 4480 seconds
#
# Revision: 0
# Processed by: cddbd v1.5.2PL0 Copyright (c) Steve Scherf et al.
# Submitted via: CDex 1.51
#
DISCID=9d117e0a
DTITLE=Dario Cellamao - Sweet Love
DYEAR=1995
DGENRE=Jazz
TTITLE0=Calling miss Khadjia
TTITLE1=Down under
TTITLE2=Bird,my dear!!!
TTITLE3=Sweet Love(instrumental - live version)
TTITLE4=The moontrane
TTITLE5=NA.MI.NA (live version)
TTITLE6=Arabian mood
TTITLE7=Musik
TTITLE8=The eternal triangle
TTITLE9=Cippi(Chicco's theme)
EXTD=YEAR: 1995
EXTT0=
EXTT1=
EXTT2=
EXTT3=
EXTT4=
EXTT5=
EXTT6=
EXTT7=
EXTT8=
EXTT9=
PLAYORDER=
